<?xml version="1.0" encoding="utf-8"?>
<!-- Generator: Adobe Illustrator 16.0.0, SVG Export Plug-In . SVG Version: 6.00 Build 0)  -->
<!DOCTYPE svg PUBLIC "-//W3C//DTD SVG 1.1//EN" "http://www.w3.org/Graphics/SVG/1.1/DTD/svg11.dtd">
<svg version="1.1" id="Capa_1" xmlns="http://www.w3.org/2000/svg" xmlns:xlink="http://www.w3.org/1999/xlink" x="0px" y="0px"
	 width="279px" height="159px" viewBox="0 0 279 159" enable-background="new 0 0 279 159" xml:space="preserve">
<text transform="matrix(1 0 0 1 462.0742 366.6807)" fill="#636466" font-family="'Rubik-Regular'" font-size="10"> 7</text>
<path fill="#FFFFFF" d="M28.067,99.29c0,1.749,0.341,3.398,1.024,4.953c0.682,1.555,1.612,2.903,2.789,4.041
	c1.177,1.14,2.523,2.05,4.041,2.733c1.518,0.684,3.149,1.025,4.896,1.025c1.669,0,3.282-0.341,4.839-1.025
	c1.555-0.683,2.921-1.593,4.098-2.733c1.176-1.138,2.107-2.486,2.789-4.041c0.684-1.555,1.025-3.204,1.025-4.953
	c0-1.745-0.341-3.394-1.025-4.952c-0.682-1.554-1.613-2.903-2.789-4.041c-1.177-1.139-2.543-2.049-4.098-2.732
	c-1.557-0.683-3.17-1.026-4.839-1.026c-1.747,0-3.378,0.362-4.896,1.082c-1.518,0.723-2.864,1.671-4.041,2.847
	c-1.177,1.178-2.107,2.543-2.789,4.099C28.409,96.123,28.067,97.697,28.067,99.29 M20.554,54.208
	c0.985-0.076,1.934,0.095,2.845,0.512s1.725,0.967,2.448,1.651c0.72,0.682,1.271,1.498,1.651,2.446
	c0.379,0.951,0.57,1.918,0.57,2.903v13.093c2.655-1.365,5.406-2.257,8.253-2.675c2.847-0.416,5.674-0.416,8.482,0
	c2.808,0.418,5.539,1.252,8.197,2.505c2.656,1.253,5.122,2.943,7.4,5.066c2.656,2.732,4.648,5.675,5.977,8.822
	c1.326,3.151,1.992,6.738,1.992,10.759c0,3.797-0.74,7.363-2.219,10.702c-1.481,3.341-3.473,6.262-5.978,8.766
	c-2.504,2.506-5.427,4.479-8.766,5.921c-3.341,1.441-6.869,2.163-10.588,2.163c-3.644,0-7.134-0.74-10.474-2.219
	c-3.34-1.481-6.281-3.473-8.823-5.979c-2.543-2.504-4.573-5.426-6.09-8.765c-1.52-3.339-2.278-6.869-2.278-10.589V61.152
	c0-0.911,0.227-1.801,0.683-2.675c0.455-0.872,1.025-1.632,1.708-2.277s1.46-1.157,2.333-1.537
	C18.749,54.284,19.643,54.132,20.554,54.208"/>
<path fill="#F89625" d="M80.322,53.35c1.972,0,3.661,0.741,5.066,2.22c1.403,1.48,2.107,3.208,2.107,5.18
	c0,1.975-0.704,3.701-2.107,5.181c-1.405,1.479-3.094,2.22-5.066,2.22c-2.202-0.076-4.005-0.777-5.408-2.107
	c-1.405-1.328-2.107-3.206-2.107-5.635c0.076-1.972,0.855-3.643,2.334-5.008C76.622,54.033,78.347,53.35,80.322,53.35"/>
<path fill="#FFFFFF" d="M80.322,72.082c1.972,0,3.623,0.722,4.952,2.163c1.326,1.443,2.068,3.188,2.221,5.237v40.303
	c0,2.047-0.646,3.756-1.936,5.121c-1.291,1.366-3.036,2.124-5.237,2.277c-1.975,0-3.644-0.606-5.01-1.82
	c-1.365-1.213-2.202-2.922-2.505-5.124V79.026c0.152-1.973,0.949-3.604,2.392-4.896C76.639,72.84,78.347,72.158,80.322,72.082"/>
<path fill="#FFFFFF" d="M100.927,126.955c-2.049,0-3.758-0.662-5.123-1.992c-1.367-1.327-2.127-3.091-2.277-5.293V98.608
	c0.074-3.643,0.853-7.076,2.333-10.303c1.481-3.226,3.453-6.035,5.92-8.426c2.467-2.391,5.351-4.287,8.652-5.692
	c3.303-1.402,6.812-2.181,10.532-2.333c2.123,0,3.888,0.721,5.293,2.163c1.403,1.443,2.181,3.186,2.334,5.236
	c0,2.05-0.723,3.777-2.163,5.18c-1.443,1.406-3.227,2.147-5.351,2.22c-1.747,0-3.378,0.324-4.895,0.968
	c-1.519,0.646-2.846,1.537-3.985,2.675c-1.139,1.139-2.048,2.488-2.732,4.041c-0.683,1.559-1.024,3.246-1.024,5.068v20.719
	c-0.153,1.975-0.893,3.606-2.221,4.895C104.892,126.312,103.126,126.955,100.927,126.955"/>
<path fill="#FFFFFF" d="M143.961,98.804c0,1.899,0.342,3.626,1.024,5.181c0.685,1.556,1.611,2.903,2.789,4.043
	c1.176,1.137,2.542,2.029,4.1,2.674c1.553,0.645,3.168,0.967,4.838,0.967c1.821,0,3.49-0.342,5.01-1.025
	c1.517-0.682,2.845-1.611,3.984-2.789c1.138-1.175,2.029-2.542,2.676-4.099c0.644-1.553,0.967-3.204,0.967-4.952
	c0-1.744-0.341-3.395-1.025-4.952c-0.683-1.555-1.594-2.902-2.73-4.042c-1.141-1.138-2.468-2.03-3.985-2.675
	c-1.52-0.643-3.15-0.968-4.896-0.968c-1.822,0-3.513,0.343-5.066,1.027c-1.556,0.682-2.904,1.593-4.042,2.73
	c-1.139,1.139-2.031,2.469-2.675,3.984C144.282,95.429,143.961,97.06,143.961,98.804 M156.712,71.253
	c3.718,0,7.247,0.721,10.588,2.163c3.339,1.443,6.261,3.415,8.767,5.919c2.504,2.504,4.497,5.428,5.976,8.767
	c1.48,3.341,2.222,6.907,2.222,10.701c0,3.797-0.703,7.364-2.107,10.703c-1.404,3.339-3.341,6.262-5.807,8.766
	c-2.467,2.504-5.39,4.479-8.766,5.919c-3.378,1.443-7.002,2.164-10.872,2.164c-4.708,0-8.957-0.948-12.751-2.846v13.093
	c0,1.972-0.723,3.679-2.163,5.122c-1.443,1.441-3.228,2.163-5.352,2.163c-1.897,0-3.586-0.666-5.065-1.992
	c-1.481-1.328-2.26-2.979-2.335-4.954V98.804c0-3.718,0.742-7.247,2.221-10.587c1.479-3.339,3.472-6.262,5.977-8.767
	c2.505-2.504,5.426-4.498,8.767-5.977C149.35,71.994,152.915,71.253,156.712,71.253"/>
<path fill="#F89625" d="M196.216,53.35c1.972,0,3.659,0.741,5.065,2.22c1.403,1.48,2.107,3.208,2.107,5.18
	c0,1.975-0.704,3.701-2.107,5.181c-1.406,1.479-3.094,2.22-5.065,2.22c-2.202-0.076-4.005-0.777-5.408-2.107
	c-1.405-1.328-2.106-3.206-2.106-5.635c0.075-1.972,0.854-3.643,2.333-5.008C192.516,54.033,194.24,53.35,196.216,53.35"/>
<path fill="#FFFFFF" d="M196.216,72.082c1.972,0,3.623,0.722,4.952,2.163c1.325,1.443,2.067,3.188,2.221,5.237v40.303
	c0,2.047-0.646,3.756-1.937,5.121c-1.291,1.366-3.038,2.124-5.236,2.277c-1.976,0-3.645-0.606-5.011-1.82
	c-1.365-1.213-2.201-2.922-2.504-5.124V79.026c0.152-1.973,0.948-3.604,2.392-4.896C192.532,72.84,194.24,72.158,196.216,72.082"/>
<path fill="#FFFFFF" d="M237.188,71.398c3.642,0,7.132,0.664,10.474,1.992c3.338,1.329,6.26,3.188,8.766,5.579
	c2.504,2.391,4.515,5.219,6.032,8.481c1.518,3.265,2.279,6.794,2.279,10.588v21.061c0,1.976-0.704,3.683-2.107,5.123
	c-1.405,1.443-3.13,2.203-5.18,2.279c-2.049,0-3.814-0.664-5.294-1.994c-1.48-1.326-2.22-3.016-2.22-5.066V98.95
	c0-1.746-0.324-3.397-0.969-4.953c-0.645-1.556-1.557-2.903-2.73-4.042c-1.179-1.139-2.544-2.047-4.101-2.732
	c-1.557-0.684-3.244-1.024-5.065-1.024c-1.67,0-3.264,0.323-4.781,0.967c-1.52,0.646-2.846,1.499-3.985,2.561
	c-1.138,1.064-2.049,2.354-2.732,3.871c-0.683,1.519-1.023,3.113-1.023,4.782v20.719c0,1.976-0.761,3.7-2.277,5.181
	c-1.52,1.481-3.264,2.221-5.237,2.221c-1.976,0-3.72-0.684-5.237-2.05c-1.519-1.367-2.276-3.034-2.276-5.01V98.95
	c0.074-3.795,0.813-7.362,2.22-10.703c1.403-3.339,3.339-6.261,5.807-8.765c2.464-2.506,5.368-4.478,8.709-5.922
	C229.596,72.121,233.239,71.398,237.188,71.398"/>
<path fill="#F89625" d="M191.479,46.827c0.198-0.698,0.24-2.376,0.24-2.411c-0.069-1.311-0.479-2.485-1.176-3.525
	c-0.921-1.714-2.214-3.092-2.961-3.86c-1.784-1.84-18.153-19.307-49.619-19.307c-31.465,0-47.916,17.762-49.413,19.307
	c-0.746,0.768-2,2.146-2.923,3.86c-0.695,1.04-1.085,2.214-1.152,3.525c-0.001,0.035,0.05,1.713,0.25,2.411
	c0.316,1.346,0.929,2.46,1.851,3.331c1.404,1.329,3.206,2.031,5.408,2.107c1.765,0,3.3-0.597,4.61-1.781l0.001,0.004
	c0,0,13.659-18.342,41.306-18.342c27.648,0,41.325,18.342,41.325,18.342v-0.004c1.391,1.184,3.039,1.781,4.806,1.781
	c2.201-0.076,4.098-0.778,5.501-2.107C190.456,49.288,191.162,48.173,191.479,46.827"/>
</svg>
