<?xml version="1.0" encoding="UTF-8"?>
<svg width="90px" height="90px" viewBox="0 0 90 90" version="1.1" xmlns="http://www.w3.org/2000/svg" xmlns:xlink="http://www.w3.org/1999/xlink">
    <!-- Generator: Sketch 46.2 (44496) - http://www.bohemiancoding.com/sketch -->
    <title>Group 6</title>
    <desc>Created with Sketch.</desc>
    <defs>
        <linearGradient x1="50%" y1="0%" x2="115.740269%" y2="108.389992%" id="linearGradient-1">
            <stop stop-color="#88F3E2" offset="0%"></stop>
            <stop stop-color="#419BAA" offset="100%"></stop>
        </linearGradient>
    </defs>
    <g id="Page-1" stroke="none" stroke-width="1" fill="none" fill-rule="evenodd">
        <g id="Mobile-Copy" transform="translate(-19.000000, -1026.000000)">
            <g id="Group-6" transform="translate(19.000000, 1026.000000)">
                <circle id="Oval-6-Copy" fill="url(#linearGradient-1)" cx="45" cy="45" r="45"></circle>
                <g id="svg" transform="translate(18.586957, 21.521739)" fill-rule="nonzero">
                    <g id="Group" transform="translate(16.630435, 3.913043)" fill="#890606">
                        <rect id="Rectangle-path" x="0" y="0" width="2.56793478" height="5.86956522"></rect>
                        <rect id="Rectangle-path" x="17.9755435" y="0" width="2.56793478" height="5.86956522"></rect>
                    </g>
                    <path d="M37.173913,3.58695652 C37.173913,4.32065217 36.4035326,4.89130435 35.205163,4.89130435 L18.5991848,4.89130435 C17.3152174,4.89130435 16.6304348,4.32065217 16.6304348,3.58695652 L16.6304348,1.30434783 C16.6304348,0.489130435 17.4008152,0 18.5991848,0 L35.1195652,0 C36.4035326,0 37.173913,0.489130435 37.173913,1.30434783 L37.173913,3.58695652 Z" id="Shape" fill="#ED5B3A"></path>
                    <path d="M35.205163,0 L18.5991848,0 C17.4008152,0 16.6304348,0.391304348 16.6304348,1.04347826 L16.6304348,1.10869565 C19.1983696,1.63043478 22.6222826,1.95652174 26.9021739,1.95652174 C31.1820652,1.95652174 34.6059783,1.63043478 37.173913,1.04347826 L37.173913,1.04347826 C37.173913,0.391304348 36.4035326,0 35.205163,0 Z" id="Shape" fill="#F48B56"></path>
                    <path d="M53.8043478,41.4223602 C53.8043478,42.8478261 52.6115007,44.0217391 51.1630435,44.0217391 L3.61956522,44.0217391 C2.17110799,44.0217391 0.97826087,42.8478261 0.97826087,41.4223602 L0.97826087,11.4037267 C0.97826087,9.97826087 2.17110799,8.80434783 3.61956522,8.80434783 L51.1630435,8.80434783 C52.6115007,8.80434783 53.8043478,9.97826087 53.8043478,11.4037267 L53.8043478,41.4223602 L53.8043478,41.4223602 Z" id="Shape" fill="#08476B"></path>
                    <path d="M0,11.3198758 C0,9.89440994 1.19670747,8.80434783 2.64985226,8.80434783 L50.0052765,8.80434783 C51.4584213,8.80434783 52.826087,9.97826087 52.826087,11.4037267 L52.826087,41.5062112 C52.826087,42.931677 51.4584213,44.0217391 50.0052765,44.0217391 L28.8919375,44.0217391" id="Shape" fill="#05365B"></path>
                    <path d="M27.3913043,31.3043478 C39.3197756,31.3043478 49.5441795,27.2762148 53.8043478,21.6861527 L53.8043478,14.0409207 C53.8043478,12.6434052 52.441094,11.7391304 50.9926367,11.7391304 L3.78997195,11.7391304 C2.34151473,11.7391304 0.97826087,12.6434052 0.97826087,14.0409207 L0.97826087,21.6861527 C5.23842917,27.3584216 15.4628331,31.3043478 27.3913043,31.3043478 Z" id="Shape" fill="#002C47"></path>
                    <path d="M27.3913043,29.3478261 C39.3197756,29.3478261 49.5441795,25.1718106 53.8043478,19.3765237 L53.8043478,11.4506167 C53.8043478,10.001795 52.441094,8.80864772 50.9926367,8.80864772 L3.61956522,8.80864772 C2.17110799,8.72342292 0.97826087,9.91657021 0.97826087,11.3653919 L0.97826087,19.2912989 C5.23842917,25.1718106 15.4628331,29.3478261 27.3913043,29.3478261 Z" id="Shape" fill="#2072A0"></path>
                    <path d="M27.0762712,29.3478261 C39.1470155,29.3478261 49.4933677,25.256179 53.8043478,19.3744362 L53.8043478,11.4468699 C53.8043478,9.9977449 52.5972734,8.80434783 51.1315402,8.80434783 L2.93478261,8.80434783" id="Shape" fill="#195F8E"></path>
                    <path d="M31.3043478,35.5752365 C31.3043478,36.2857594 30.7842598,37.173913 30.0041277,37.173913 L25.9301046,37.173913 C25.1499725,37.173913 24.4565217,36.196944 24.4565217,35.5752365 L24.4565217,26.7825154 C24.4565217,26.0719925 24.9766098,26.6048847 25.7567419,26.6048847 L30.0041277,26.6048847 C30.7842598,26.6048847 31.3043478,26.1608078 31.3043478,26.7825154 L31.3043478,35.5752365 Z" id="Shape" fill="#002C47"></path>
                    <path d="M31.3043478,33.3721447 C31.3043478,34.0657333 30.7842598,34.2391304 30.0041277,34.2391304 L25.7567419,34.2391304 C24.9766098,34.2391304 24.4565217,34.0657333 24.4565217,33.3721447 L24.4565217,24.7889857 C24.4565217,24.0953971 24.9766098,24.7022871 25.7567419,24.7022871 L30.0041277,24.7022871 C30.7842598,24.7022871 31.3043478,24.0953971 31.3043478,24.7889857 L31.3043478,33.3721447 Z" id="Shape" fill="#ED5B3A"></path>
                    <path d="M24.4565217,24.7889857 C24.4565217,24.0953971 24.9766098,24.7022871 25.7567419,24.7022871 L30.0041277,24.7022871 C30.7842598,24.7022871 31.3043478,24.0953971 31.3043478,24.7889857 L31.3043478,33.3721447 C31.3043478,34.0657333 30.7842598,34.2391304 30.0041277,34.2391304" id="Shape" fill="#DD4228"></path>
                    <path d="M30.326087,30.9807375 C30.326087,31.3043478 30.2282609,31.3043478 29.7391304,31.3043478 L27,31.3043478 C26.5108696,31.3043478 26.4130435,31.3043478 26.4130435,30.9807375 L26.4130435,25.5602642 C26.4130435,25.2366538 26.7065217,25.6411668 27.2934783,25.6411668 L29.5434783,25.6411668 C30.0326087,25.6411668 30.326087,25.2366538 30.326087,25.5602642 L30.326087,30.9807375 L30.326087,30.9807375 Z" id="Shape" fill="#B53023"></path>
                    <path d="M26.4130435,25.5602642 C26.4130435,25.2366538 26.9021739,25.6411668 27.3913043,25.6411668 L29.4456522,25.6411668 C29.9347826,25.6411668 30.326087,25.2366538 30.326087,25.5602642 L30.326087,30.9807375 C30.326087,31.3043478 30.1304348,31.3043478 29.5434783,31.3043478" id="Shape" fill="#9B1812"></path>
                </g>
            </g>
        </g>
    </g>
</svg>