<?xml version="1.0" encoding="UTF-8"?>
<svg width="24px" height="24px" viewBox="0 0 24 24" version="1.1" xmlns="http://www.w3.org/2000/svg" xmlns:xlink="http://www.w3.org/1999/xlink">
    <!-- Generator: Sketch 46.2 (44496) - http://www.bohemiancoding.com/sketch -->
    <title>Group 4 Copy 2</title>
    <desc>Created with Sketch.</desc>
    <defs>
        <circle id="path-1" cx="10" cy="10" r="10"></circle>
        <filter x="-12.5%" y="-12.5%" width="135.0%" height="135.0%" filterUnits="objectBoundingBox" id="filter-2">
            <feOffset dx="1" dy="1" in="SourceAlpha" result="shadowOffsetOuter1"></feOffset>
            <feGaussianBlur stdDeviation="1" in="shadowOffsetOuter1" result="shadowBlurOuter1"></feGaussianBlur>
            <feColorMatrix values="0 0 0 0 0   0 0 0 0 0   0 0 0 0 0  0 0 0 0.3 0" type="matrix" in="shadowBlurOuter1"></feColorMatrix>
        </filter>
    </defs>
    <g id="Page-1" stroke="none" stroke-width="1" fill="none" fill-rule="evenodd">
        <g id="Mobile-Copy-3" transform="translate(-20.000000, -488.000000)">
            <g id="Group-4" transform="translate(21.000000, 467.000000)">
                <g id="Group-4-Copy-2" transform="translate(0.000000, 22.000000)">
                    <g id="Oval-4-Copy-2">
                        <use fill="black" fill-opacity="1" filter="url(#filter-2)" xlink:href="#path-1"></use>
                        <use fill="#F5F6F9" fill-rule="evenodd" xlink:href="#path-1"></use>
                    </g>
                    <path d="M5.57161458,8.32552083 C6.03646066,8.32552083 6.43294107,8.48958169 6.76106771,8.81770833 C7.08919435,9.14583497 7.25325521,9.54687263 7.25325521,10.0208333 C7.25325521,10.4856794 7.08919435,10.8844384 6.76106771,11.2171224 C6.43294107,11.5498064 6.03646066,11.7161458 5.57161458,11.7161458 C5.10676851,11.7161458 4.7102881,11.5498064 4.38216146,11.2171224 C4.05403482,10.8844384 3.88997396,10.4856794 3.88997396,10.0208333 C3.88997396,9.54687263 4.05403482,9.14583497 4.38216146,8.81770833 C4.7102881,8.48958169 5.10676851,8.32552083 5.57161458,8.32552083 Z M9.97690105,8.32552083 C10.4417471,8.32552083 10.8382275,8.48958169 11.1663542,8.81770833 C11.4944808,9.14583497 11.6585417,9.54687263 11.6585417,10.0208333 C11.6585417,10.4856794 11.4944808,10.8844384 11.1663542,11.2171224 C10.8382275,11.5498064 10.4417471,11.7161458 9.97690105,11.7161458 C9.51205498,11.7161458 9.11557457,11.5498064 8.78744793,11.2171224 C8.45932129,10.8844384 8.29526043,10.4856794 8.29526043,10.0208333 C8.29526043,9.54687263 8.45932129,9.14583497 8.78744793,8.81770833 C9.11557457,8.48958169 9.51205498,8.32552083 9.97690105,8.32552083 Z M14.3821875,8.32552083 C14.8470336,8.32552083 15.243514,8.48958169 15.5716407,8.81770833 C15.8997673,9.14583497 16.0638282,9.54687263 16.0638282,10.0208333 C16.0638282,10.4856794 15.8997673,10.8844384 15.5716407,11.2171224 C15.243514,11.5498064 14.8470336,11.7161458 14.3821875,11.7161458 C13.9173415,11.7161458 13.520861,11.5498064 13.1927344,11.2171224 C12.8646078,10.8844384 12.7005469,10.4856794 12.7005469,10.0208333 C12.7005469,9.54687263 12.8646078,9.14583497 13.1927344,8.81770833 C13.520861,8.48958169 13.9173415,8.32552083 14.3821875,8.32552083 Z" id="...-copy-2" fill="#9B9B9B"></path>
                </g>
            </g>
        </g>
    </g>
</svg>