<?xml version="1.0" encoding="UTF-8"?>
<svg width="12px" height="16px" viewBox="0 0 12 16" version="1.1" xmlns="http://www.w3.org/2000/svg" xmlns:xlink="http://www.w3.org/1999/xlink">
    <!-- Generator: Sketch 46.2 (44496) - http://www.bohemiancoding.com/sketch -->
    <title>001-waste-bin</title>
    <desc>Created with Sketch.</desc>
    <defs></defs>
    <g id="Page-1" stroke="none" stroke-width="1" fill="none" fill-rule="evenodd">
        <g id="Mobile-Copy-3" transform="translate(-128.000000, -271.000000)" fill-rule="nonzero" fill="#000000">
            <g id="Group-3" transform="translate(117.000000, 175.000000)">
                <g id="001-waste-bin" transform="translate(11.000000, 96.000000)">
                    <path d="M1.66528174,14.9140482 C1.66528174,14.9140482 1.90902165,16 3.16362085,16 L8.83637915,16 C10.0909174,16 10.3346573,14.9140482 10.3346573,14.9140482 L11.4545565,4.2666905 L0.545443464,4.2666905 L1.66528174,14.9140482 Z M8.1818348,5.86671434 C8.1818348,5.57213308 8.42600136,5.33339293 8.72727827,5.33339293 C9.02855518,5.33339293 9.27278268,5.57213308 9.27278268,5.86671434 L8.72727827,13.8667143 C8.72727827,14.1612956 8.48305076,14.4000358 8.1818348,14.4000358 C7.88061885,14.4000358 7.63639134,14.161236 7.63639134,13.8667143 L8.1818348,5.86671434 Z M5.45455654,5.86671434 C5.45455654,5.57213308 5.69878404,5.33339293 6,5.33339293 C6.30127691,5.33339293 6.54544346,5.57213308 6.54544346,5.86671434 L6.54544346,13.8667143 C6.54544346,14.1612956 6.30127691,14.4000358 6,14.4000358 C5.69872309,14.4000358 5.45455654,14.161236 5.45455654,13.8667143 L5.45455654,5.86671434 Z M3.27272173,5.33333333 C3.57399864,5.33333333 3.8181652,5.57207348 3.8181652,5.86665475 L4.36366961,13.8666547 C4.36366961,14.161236 4.1194421,14.3999762 3.8181652,14.3999762 C3.51694924,14.3999762 3.27272173,14.1611764 3.27272173,13.8666547 L2.72727827,5.86671434 C2.72727827,5.57213308 2.97150578,5.33333333 3.27272173,5.33333333 Z M11.1272539,2.13417959 L8.72727827,2.13417959 L8.72727827,1.06670242 C8.72727827,0.257572371 8.45964588,0 7.63639134,0 L4.36360866,0 C3.60849646,0 3.27272173,0.357633457 3.27272173,1.06670242 L3.27272173,2.13423919 L0.872746112,2.13423919 C0.39038612,2.13423919 0,2.49223022 0,2.93460868 C0,3.37704674 0.39038612,3.73503777 0.872746112,3.73503777 L11.1272539,3.73503777 C11.6096139,3.73503777 12,3.37704674 12,2.93460868 C12,2.49223022 11.6096139,2.13417959 11.1272539,2.13417959 Z M7.63639134,2.13417959 L4.36366961,2.13417959 L4.36373056,1.06664283 L7.63645229,1.06664283 L7.63645229,2.13417959 L7.63639134,2.13417959 Z" id="Shape"></path>
                </g>
            </g>
        </g>
    </g>
</svg>