<?xml version="1.0" encoding="UTF-8"?>
<svg width="15px" height="15px" viewBox="0 0 15 15" version="1.1" xmlns="http://www.w3.org/2000/svg" xmlns:xlink="http://www.w3.org/1999/xlink">
    <!-- Generator: Sketch 46.2 (44496) - http://www.bohemiancoding.com/sketch -->
    <title>002-refresh-round-symbol</title>
    <desc>Created with Sketch.</desc>
    <defs></defs>
    <g id="Page-1" stroke="none" stroke-width="1" fill="none" fill-rule="evenodd">
        <g id="Mobile-Copy-3" transform="translate(-220.000000, -272.000000)" fill-rule="nonzero" fill="#000000">
            <g id="Group-3" transform="translate(117.000000, 175.000000)">
                <g id="002-refresh-round-symbol" transform="translate(103.000000, 97.000000)">
                    <path d="M3.87930335,4.13095327 C5.51402261,2.45792231 8.01415156,2.21906656 9.90310398,3.40137647 C9.2624364,4.04977354 8.52465175,4.80745102 8.52465175,4.80745102 C8.0075415,5.44179775 8.58821005,5.80762692 8.88312052,5.79826003 L12.33459,5.79721926 C12.5166209,5.79721926 12.6656016,5.79826003 12.6656016,5.79826003 C12.6656016,5.79826003 12.8161076,5.79826003 12.998647,5.79826003 L13.6677887,5.79826003 C13.8503281,5.79826003 13.9988003,5.64578784 13.9993087,5.45845 L13.9993087,0.600675799 C14.0206643,0.156268818 13.5437229,-0.274608208 13.0515275,0.221316678 C13.0515275,0.221316678 12.2369644,1.03363436 11.6746007,1.603974 C8.79871511,-0.546248073 4.74420458,-0.303229267 2.14543316,2.35644764 C0.629186565,3.9082294 -0.0780901018,5.96686408 0.00682377545,8 L2.46271615,8 C2.37576841,6.61109809 2.84152357,5.19305473 3.87930335,4.13095327 Z" id="Shape"></path>
                    <path d="M12.5377064,7 C12.6246423,8.38899226 12.1589509,9.80712786 11.1213132,10.8692984 C9.48630938,12.5424382 6.98753954,12.7813095 5.09884576,11.5989227 C5.73840883,10.9504834 6.47660085,10.1922362 6.47660085,10.1922362 C6.99313191,9.55784825 6.41305126,9.19199528 6.11818117,9.20240362 L2.6666759,9.20344445 C2.48466988,9.20344445 2.33570964,9.20240362 2.33570964,9.20240362 C2.33570964,9.20240362 2.18522421,9.20240362 2.00270979,9.20240362 L1.33213453,9.20240362 C1.14962011,9.20240362 1.00116827,9.35488572 1.00065988,9.54171533 L1.00065988,14.3992851 C0.979815612,14.843721 1.45618333,15.2746261 1.94881974,14.7786689 C1.94881974,14.7786689 2.76276288,13.9662984 3.32555804,13.3964421 C6.20308342,15.5483653 10.256022,15.3042898 12.8544376,12.6449603 C14.3694598,11.093598 15.0776564,9.03430901 14.9932625,7.00104083 L12.5377064,7 L12.5377064,7 Z" id="Shape"></path>
                </g>
            </g>
        </g>
    </g>
</svg>