<?xml version="1.0" encoding="UTF-8"?>
<svg width="90px" height="90px" viewBox="0 0 90 90" version="1.1" xmlns="http://www.w3.org/2000/svg" xmlns:xlink="http://www.w3.org/1999/xlink">
    <!-- Generator: Sketch 46.2 (44496) - http://www.bohemiancoding.com/sketch -->
    <title>Group 5</title>
    <desc>Created with Sketch.</desc>
    <defs>
        <linearGradient x1="50%" y1="0%" x2="115.740269%" y2="108.389992%" id="linearGradient-1">
            <stop stop-color="#88F3E2" offset="0%"></stop>
            <stop stop-color="#419BAA" offset="100%"></stop>
        </linearGradient>
    </defs>
    <g id="Page-1" stroke="none" stroke-width="1" fill="none" fill-rule="evenodd">
        <g id="Mobile-Copy" transform="translate(-19.000000, -758.000000)">
            <g id="Group-5" transform="translate(19.000000, 758.000000)">
                <circle id="Oval-6" fill="url(#linearGradient-1)" cx="45" cy="45" r="45"></circle>
                <g id="003-cap" transform="translate(11.739130, 26.413043)" fill-rule="nonzero">
                    <path d="M52.7972079,16.7311943 C52.7961481,16.422904 52.6668546,16.1293457 52.4411209,15.9244495 C52.2144599,15.7195534 51.9112296,15.6239983 51.6131658,15.6594091 L15.6095686,19.9843936 C15.0766304,20.0483223 14.673913,20.5102847 14.673913,21.0582062 L14.673913,30.7894215 C14.673913,35.0568297 26.6648234,36.1956522 33.75,36.1956522 C40.8351766,36.1956522 52.826087,35.0568297 52.826087,30.7894215 C52.826087,30.7894215 52.826087,30.7877996 52.826087,30.787259 L52.7972079,16.7311943 Z" id="Shape" fill="#5D647F"></path>
                    <path d="M53.8043478,19.5652174 L34.2391304,19.5652174 L34.2391304,36.1955136 C34.248913,36.1955136 34.2591033,36.1956522 34.2688859,36.1956522 C41.3456522,36.1956522 53.1891304,35.0869565 53.8043478,30.9878315 L53.8043478,19.5652174 Z" id="Shape" fill="#68748D"></path>
                    <path d="M66.2974528,10.1626484 L38.7732376,0.750353982 C35.8490914,-0.250117994 32.6287661,-0.250117994 29.7046199,0.750353982 L2.18161474,10.1626484 C0.857077337,10.6152142 0,11.8099877 0,13.2069743 C0,14.6034245 0.857077337,15.7981981 2.18161474,16.2507638 L29.7047544,25.6629242 C31.1668275,26.1630931 32.7024412,26.4130435 34.2391304,26.4130435 C35.7758197,26.4130435 37.3114334,26.1632272 38.7735065,25.6629242 L66.2977217,16.2507638 C67.6222591,15.7981981 68.4782609,14.6034245 68.4782609,13.2069743 C68.477992,11.8099877 67.6219902,10.6152142 66.2974528,10.1626484 Z" id="Shape" fill="#74829C"></path>
                    <path d="M55.6211359,36.1956522 C55.0031644,36.1956522 54.5031413,35.7197527 54.5031413,35.1327835 L54.5031413,21.2449433 C54.5031413,20.7908326 54.1996058,20.386544 53.7476565,20.2392038 L34.0168695,13.8080514 C33.4327174,13.6175322 33.1216354,13.0135571 33.3213371,12.4582082 C33.5222967,11.9028593 34.1566188,11.6055218 34.7417492,11.7975025 L54.4725362,18.2286549 C55.8285239,18.6708083 56.7391304,19.8826114 56.7391304,21.2449433 L56.7391304,35.1327835 C56.7391304,35.7197527 56.2391074,36.1956522 55.6211359,36.1956522 Z" id="Shape" fill="#5C546A"></path>
                    <path d="M55.5163043,44.0217391 L53.0706522,44.0217391 C52.3953465,44.0217391 51.8478261,43.5350543 51.8478261,42.9347826 L51.8478261,36.4130435 C51.8478261,35.2123641 52.942714,34.2391304 54.2934783,34.2391304 L54.2934783,34.2391304 C55.6442425,34.2391304 56.7391304,35.2123641 56.7391304,36.4130435 L56.7391304,42.9347826 C56.7391304,43.5350543 56.1916101,44.0217391 55.5163043,44.0217391 Z" id="Shape" fill="#FFE671"></path>
                    <path d="M33.7525173,30.326087 C41.4425197,30.326087 49.19678,29.2503668 52.826087,27.1709511 L52.8199924,24.4934511 C52.7027385,25.8312228 45.9883947,28.3695652 33.7525173,28.3695652 C21.4081304,28.3695652 14.673913,25.7843886 14.673913,24.4565217 L14.673913,27.1680163 C18.3009677,29.2492663 26.0589377,30.326087 33.7525173,30.326087 Z" id="Shape" fill="#5D647F"></path>
                    <g id="Group" transform="translate(14.673913, 24.456522)" fill="#5C546A">
                        <path d="M39.547419,2.75031056 C39.5631571,2.74611801 39.5819325,2.74228483 39.5973945,2.73809228 L39.5846935,0.115235138 C39.5819325,0.130088731 39.5537695,0.146978705 39.547419,0.162071872 L39.547419,2.75031056 Z" id="Shape"></path>
                        <path d="M19.804763,3.91188554 C7.0504589,3.90781278 0.0921323944,1.37886868 0.0921323944,0.0790594499 L0.0921323944,2.73521739 C3.84076919,4.77135759 11.8531342,5.82584295 19.804763,5.82859805 L19.804763,3.91188554 Z" id="Shape"></path>
                    </g>
                    <ellipse id="Oval" fill="#5D647F" cx="34.7282609" cy="13.2065217" rx="4.40217391" ry="2.44565217"></ellipse>
                    <path d="M51.8478261,36.4130435 L51.8478261,42.9347826 C51.8478261,43.5350543 52.2858424,44.0217391 52.826087,44.0217391 L53.8043478,44.0217391 L53.8043478,34.2391304 C52.7238587,34.2391304 51.8478261,35.2123641 51.8478261,36.4130435 Z" id="Shape" fill="#FFCD00"></path>
                </g>
            </g>
        </g>
    </g>
</svg>