<?xml version="1.0" encoding="UTF-8"?>
<svg width="57px" height="58px" viewBox="0 0 57 58" version="1.1" xmlns="http://www.w3.org/2000/svg" xmlns:xlink="http://www.w3.org/1999/xlink">
    <!-- Generator: Sketch 46.2 (44496) - http://www.bohemiancoding.com/sketch -->
    <title>Group 3</title>
    <desc>Created with Sketch.</desc>
    <defs></defs>
    <g id="Page-1" stroke="none" stroke-width="1" fill="none" fill-rule="evenodd">
        <g id="Mobile-Copy-6" transform="translate(-14.000000, -582.000000)" fill-rule="nonzero">
            <g id="Group-3" transform="translate(14.000000, 582.000000)">
                <path d="M7.99992625,16 L3.99963126,16 C3.44737815,16 3,15.5522123 3,14.9999999 C3,14.4477875 3.44737815,14 3.99963126,14 L7.99992625,14 C8.55217937,14 9,14.4477875 9,14.9999999 C9,15.5522123 8.55217937,16 7.99992625,16 Z" id="Shape" fill="#BDC3C7"></path>
                <path d="M12,7 C9.79002098,7 8,10.579844 8,14.9999999 C8,19.420156 9.79002098,23 12,23 L12,7 Z" id="Shape" fill="#802F34"></path>
                <path d="M4,15 C4,16.1044248 3.1047682,17 2.00022125,17 C0.895674294,17 0,16.1044248 0,15 C0,13.8955752 0.895674294,13 2.00022125,13 C3.1047682,13 4,13.8955752 4,15 Z" id="Shape" fill="#DF4D60"></path>
                <path d="M54,16 L50,16 C49.4477876,16 49,15.5522123 49,14.9999999 C49,14.4477875 49.4477876,14 50,14 L54,14 C54.5522124,14 55,14.4477875 55,14.9999999 C55,15.5522123 54.5522124,16 54,16 Z" id="Shape" fill="#BDC3C7"></path>
                <path d="M45,23 C47.209979,23 49,19.420156 49,14.9999999 C49,10.579844 47.209979,7 45,7 L45,23 Z" id="Shape" fill="#802F34"></path>
                <path d="M57,15 C57,16.1044248 56.1047682,17 54.9997788,17 C53.8952318,17 53,16.1044248 53,15 C53,13.8955752 53.8952318,13 54.9997788,13 C56.1047682,13 57,13.8955752 57,15 Z" id="Shape" fill="#DF4D60"></path>
                <path d="M57,15 C57,16.1044248 56.1047682,17 54.9997788,17 C53.8952318,17 53,16.1044248 53,15 C53,13.8955752 53.8952318,13 54.9997788,13 C56.1047682,13 57,13.8955752 57,15 Z" id="Shape" fill="#DF4D60"></path>
                <polygon id="Shape" fill="#802F34" points="27 28 31 28 31 35 27 35"></polygon>
                <path d="M17.0002603,0 L40.9997397,0 C43.7613879,0 46,2.23862768 46,4.99985253 L46,25.0001475 C46,27.7613723 43.7613879,30 40.9997397,30 L17.0002603,30 C14.2386121,30 12,27.7613723 12,25.0001475 L12,4.99985253 C12,2.23862768 14.2386121,0 17.0002603,0 Z" id="Shape" fill="#FF5364"></path>
                <path d="M40.2402236,5.03008953 C40.1619008,5.01017726 40.0809228,5.00044246 40.0003873,5 L18.0005018,5 C17.4478165,5 17.0004467,5.44780296 17.0004467,6.00003429 L17.0004467,23.9997664 C16.9986767,24.0232185 17.0022167,24.0471132 17.0101818,24.0696804 C17.0327493,24.4555343 17.2792232,24.791829 17.640305,24.9294443 C17.7540281,24.978561 17.8766012,25.0024557 18.0005018,24.9998007 L40.0003873,24.9998007 C40.5526302,24.9998007 41,24.5519977 41,23.9997664 L41,6.00003429 C41,5.54072645 40.6862659,5.14027027 40.2402236,5.03008953 Z" id="Shape" fill="#F0C419"></path>
                <g id="Group" transform="translate(9.000000, 37.000000)" fill="#802F34">
                    <path d="M38.0457054,8.73025571 C37.9805571,8.73025571 37.9154088,8.72428975 37.8511653,8.71193182 C37.2974047,8.61093753 36.9350172,8.10639207 37.0417881,7.58437505 L38.0099643,2.85681818 L32.9908302,1.94403404 C32.6239187,1.88693182 32.318536,1.64659091 32.1941208,1.31676131 C32.0692532,0.986505709 32.1448071,0.61875 32.390923,0.35625 C32.6370388,0.09375 33.0152609,-0.0221590909 33.3785531,0.0536932364 L38.3981395,0.966477273 C39.507018,1.16846596 40.231793,2.17840909 40.0177988,3.22286935 L39.0487178,7.94914778 C38.9559719,8.40213065 38.5352225,8.7298296 38.0457054,8.73025571 L38.0457054,8.73025571 Z" id="Shape"></path>
                    <path d="M39.4690148,11.9322443 C39.4034141,11.9322443 39.3378134,11.9262784 39.2735699,11.9139205 C38.7198093,11.8129261 38.3574219,11.3088068 38.4637402,10.7872159 L38.855535,8.89602273 L36.8472479,8.52997156 L36.4599775,10.4211648 C36.3527542,10.9436079 35.816638,11.2853693 35.2619725,11.1843751 C34.7077595,11.0838068 34.3449196,10.5788352 34.4516906,10.0563921 L34.8394134,8.16605116 C34.9412076,7.66363636 35.2506621,7.22002844 35.7003664,6.93281247 C36.1496182,6.64602273 36.7015691,6.53906247 37.2349709,6.63579545 L39.2428054,7.00184662 C40.3516839,7.20340909 41.0764587,8.21377844 40.8624647,9.25781247 L40.4747418,11.1473012 C40.3838057,11.6028409 39.9607941,11.9326704 39.4690148,11.9322443 L39.4690148,11.9322443 Z" id="Shape"></path>
                    <path d="M2.85838194,8.73025571 C2.36886476,8.7298296 1.94811523,8.40213065 1.85536941,7.94914778 L0.886288429,3.22201702 C0.672746763,2.17798298 1.3975216,1.16846596 2.50594768,0.966477273 L7.52598652,0.0536932364 C8.07205591,-0.0311079273 8.59098029,0.308948836 8.69594144,0.8211648 C8.8009026,1.33338065 8.45389748,1.83110793 7.913257,1.94403404 L2.89321816,2.85681818 L3.86275153,7.58437505 C3.96952248,8.10639207 3.60668256,8.61093753 3.05292196,8.71193182 C2.98867855,8.72428975 2.92398264,8.73025571 2.85838194,8.73025571 L2.85838194,8.73025571 Z" id="Shape"></path>
                    <path d="M1.43552478,11.9322443 C0.946007709,11.9313921 0.525710571,11.6041193 0.433417254,11.1511364 L0.0456942684,9.26079545 C-0.167847398,8.21676131 0.557379944,7.2076704 1.66535352,7.00568182 L3.67228325,6.63963065 C4.20523264,6.54247156 4.75718356,6.64857949 5.20643538,6.93494313 C5.65613971,7.22130676 5.96604655,7.66406247 6.06874564,8.16605116 L6.45646851,10.0563921 C6.56323935,10.5788352 6.20039942,11.0838068 5.64618644,11.1843751 C5.09152107,11.2853693 4.55540472,10.9436079 4.4481815,10.4211648 L4.06091102,8.53082389 L2.04900465,8.89602273 L2.43627513,10.7872159 C2.54259357,11.3088068 2.18020616,11.8129261 1.62644556,11.9139205 C1.56355932,11.9258522 1.4997683,11.9322443 1.43552478,11.9322443 L1.43552478,11.9322443 Z" id="Shape"></path>
                </g>
                <path d="M34,5 C23.304591,8.67646652 18.5483892,19.5564089 17.010303,24 C17.0022431,23.9775153 16.9986609,23.9537079 17.000452,23.9303415 L17.000452,5.99638017 C17.000452,5.4461667 17.4531464,5 18.0124098,5 L34,5 Z" id="Shape" fill="#F3D55B"></path>
                <path d="M23.0002213,10 C24.1047683,10 25,10.895212 25,11.9997345 L25,18.0002656 C25,19.1047881 24.1047683,20 23.0002213,20 C21.8956743,20 21,19.1047881 21,18.0002656 L21,11.9997345 C21,10.895212 21.8956743,10 23.0002213,10 Z" id="Shape" fill="#2C2F38"></path>
                <path d="M33.9997788,10 C35.1047682,10 36,10.895212 36,11.9997345 L36,18.0002656 C36,19.1047881 35.1047682,20 33.9997788,20 C32.8952318,20 32,19.1047881 32,18.0002656 L32,11.9997345 C32,10.895212 32.8952318,10 33.9997788,10 L33.9997788,10 Z" id="Shape" fill="#2C2F38"></path>
                <path d="M32.3571021,51 L24.6460446,51 C23.9372361,51 23.281522,50.6247593 22.9222508,50.0141081 L15.2762338,37.0143175 C14.9120956,36.3952587 14.907671,35.6288472 15.26473,35.005806 C15.621789,34.3827648 16.2850249,33.9991165 17.0031248,34.0000015 L40.0000218,34.0000015 C40.7176793,34.0000015 41.3800303,34.3845348 41.7362044,35.0071335 C42.0923784,35.6297323 42.0875114,36.3957012 41.7238157,37.0143175 L34.0777987,50.0141081 C33.7189701,50.6238743 33.0645832,50.9991151 32.3571021,51 Z" id="Shape" fill="#00B8ED"></path>
                <path d="M16.0001896,53 L18.9999368,53 C19.5521841,53 20,53.4473848 20,54.0000885 L20,56.9999115 C20,57.5521728 19.5521841,58 18.9999368,58 L14.0000632,58 C13.4478159,58 13,57.5521728 13,56.9999115 L13,55.999823 C13,54.3430392 14.3430053,53 16.0001896,53 L16.0001896,53 Z" id="Shape" fill="#DF4D60"></path>
                <path d="M18.9417286,54 C18.4214644,54 18.0000003,53.5479921 18.0000003,52.9905751 L18.0000003,51.9811503 C17.9991665,49.5451312 19.6254092,47.4574976 21.8623785,47.0220156 C22.1979656,46.9456389 22.5460591,47.071147 22.7703397,47.3494088 C22.9950371,47.6272239 23.0604871,48.0144679 22.9416766,48.3592803 C22.8224495,48.7040927 22.5381384,48.9524291 22.1987994,49.0073668 C20.8577017,49.2691026 19.8834568,50.5206108 19.8838738,51.9811503 L19.8838738,52.9905751 C19.8838738,53.5479921 19.4624097,54 18.9417286,54 L18.9417286,54 Z" id="Shape" fill="#802F34"></path>
                <path d="M42.9999368,58 L38.0000632,58 C37.4478159,58 37,57.5521728 37,56.9999115 L37,54.0000885 C37,53.4473848 37.4478159,53 38.0000632,53 L40.9998104,53 C42.6569947,53 44,54.3430392 44,55.999823 L44,56.9999115 C44,57.5521728 43.5521841,58 42.9999368,58 Z" id="Shape" fill="#DF4D60"></path>
                <path d="M39.0580903,54 C38.5379562,54 38.1161807,53.5479921 38.1161807,52.9905751 L38.1161807,51.9811503 C38.1165975,50.5206108 37.1421795,49.268656 35.8010003,49.0073668 C35.4617461,48.9524291 35.1770893,48.7040927 35.0583087,48.3592803 C34.9395281,48.0144679 35.0049616,47.6272239 35.2296029,47.3494088 C35.4538274,47.071147 35.8018338,46.9456389 36.137337,47.0220156 C38.3741639,47.457051 40.0004167,49.5446845 39.9999999,51.9811503 L39.9999999,52.9905751 C39.9999999,53.5479921 39.5782245,54 39.0580903,54 L39.0580903,54 Z" id="Shape" fill="#802F34"></path>
                <path d="M29.9999752,38.9999505 C29.8694475,38.9981757 29.7402472,38.97111 29.6198962,38.9196408 C29.4964479,38.8734961 29.3840612,38.8016169 29.2898158,38.7088837 C29.1075194,38.516762 29.0039822,38.2625222 29,37.9971901 C29.0017698,37.8658551 29.0287603,37.7367386 29.0800865,37.6160524 C29.1707922,37.3640313 29.3685749,37.1656977 29.6198962,37.0747393 C29.9928957,36.9234379 30.4198764,37.0059659 30.7096923,37.2850528 C30.7981857,37.3826666 30.8689804,37.4944789 30.919864,37.6160524 C30.9711902,37.7367386 30.9981806,37.8658551 30.9999506,37.9971901 C31.0026053,38.2638534 30.8981831,38.5203116 30.7101347,38.7088837 C30.5216437,38.8978996 30.2658979,39.0026126 29.9999752,38.9999505 Z" id="Shape" fill="#DF4D60"></path>
                <path d="M29.9999999,43 C29.4477875,43 29,42.5522123 29,41.9999999 L29,41.0000001 C29,40.4477877 29.4477875,40 29.9999999,40 C30.5522123,40 31,40.4477877 31,41.0000001 L31,41.9999999 C31,42.5522123 30.5522123,43 29.9999999,43 Z" id="Shape" fill="#2C2F38"></path>
                <path d="M33.999754,38.9999505 C33.8691973,38.9981757 33.7399685,38.97111 33.6200334,38.9196408 C33.4961152,38.8734961 33.3837037,38.8016169 33.2898799,38.7088837 C33.1071006,38.516762 33.0035405,38.2625222 33,37.9971901 C33.0013276,37.8658551 33.0287667,37.7367386 33.0796616,37.6160524 C33.17083,37.3640313 33.3686565,37.1656977 33.6200334,37.0747393 C33.9931155,36.9234379 34.4197481,37.0059659 34.7100707,37.2850528 C34.798141,37.3826666 34.869394,37.4944789 34.9198464,37.6160524 C34.9711839,37.7367386 34.9986229,37.8658551 34.9999506,37.9971901 C35.002606,38.2638534 34.8981607,38.5203116 34.7100707,38.7088837 C34.5219805,38.8978996 34.2661781,39.0026126 33.999754,38.9999505 L33.999754,38.9999505 Z" id="Shape" fill="#DF4D60"></path>
                <path d="M33.9997787,43 C33.4474441,43 33,42.5522123 33,41.9999999 L33,41.0000001 C33,40.4477877 33.4474441,40 33.9997787,40 C34.5521133,40 35,40.4477877 35,41.0000001 L35,41.9999999 C35,42.5522123 34.5521133,43 33.9997787,43 Z" id="Shape" fill="#2C2F38"></path>
                <path d="M25.9999261,39 L22.0000737,39 C21.4478206,39 21,38.5522124 21,38 C21,37.4477876 21.4478206,37 22.0000737,37 L25.9999261,37 C26.5526218,37 27,37.4477876 27,38 C27,38.5522124 26.5526218,39 25.9999261,39 Z" id="Shape" fill="#DF4D60"></path>
                <path d="M23.9999753,42.9999505 C23.8690051,42.9981755 23.7402472,42.9711097 23.6198962,42.9196401 C23.4964479,42.8739387 23.3840613,42.8020589 23.2898159,42.709325 C23.1075194,42.5167579 23.0039822,42.2625162 23,41.9971819 C23.0013273,41.8662896 23.0287603,41.7367283 23.0800865,41.6160412 C23.1707922,41.3644616 23.3685749,41.1661264 23.6198962,41.0747237 C23.9928958,40.923421 24.419434,41.0059497 24.7096923,41.2854826 C24.7981857,41.3830971 24.8689804,41.4949103 24.919864,41.6160412 C24.9711903,41.7367283 24.9981807,41.8662896 24.9999506,41.9971819 C25.0026053,42.2638474 24.8981831,42.5207514 24.7096923,42.709325 C24.5216439,42.8978987 24.2658979,43.0026126 23.9999753,42.9999505 Z" id="Shape" fill="#802F34"></path>
            </g>
        </g>
    </g>
</svg>