<?xml version="1.0" encoding="UTF-8"?>
<svg width="90px" height="90px" viewBox="0 0 90 90" version="1.1" xmlns="http://www.w3.org/2000/svg" xmlns:xlink="http://www.w3.org/1999/xlink">
    <!-- Generator: Sketch 46.2 (44496) - http://www.bohemiancoding.com/sketch -->
    <title>Group 12</title>
    <desc>Created with Sketch.</desc>
    <defs>
        <linearGradient x1="50%" y1="0%" x2="115.740269%" y2="108.389992%" id="linearGradient-1">
            <stop stop-color="#88F3E2" offset="0%"></stop>
            <stop stop-color="#419BAA" offset="100%"></stop>
        </linearGradient>
    </defs>
    <g id="Page-1" stroke="none" stroke-width="1" fill="none" fill-rule="evenodd">
        <g id="Group-12">
            <g id="002-curriculum-copy">
                <circle id="Oval-6" fill="url(#linearGradient-1)" cx="45" cy="45" r="45"></circle>
                <g id="Group-7" transform="translate(25.000000, 20.000000)" fill-rule="nonzero">
                    <path d="M38.4811458,52 L2.51693541,52 C1.11863796,52 0,50.8841202 0,49.4892704 L0,2.51072961 C0,1.11587983 1.11863796,0 2.51693541,0 L38.4811458,0 C39.8794433,0 40.9980812,1.11587983 40.9980812,2.51072961 L40.9980812,49.4892704 C41.0540131,50.8841202 39.8794433,52 38.4811458,52 Z" id="Shape" fill="#FFFFFF"></path>
                    <g id="Group" transform="translate(3.000000, 22.000000)" fill="#E6E9EE">
                        <rect id="Rectangle-path" x="0.0553359684" y="0.112" width="34.8616601" height="1.456"></rect>
                        <rect id="Rectangle-path" x="0.0553359684" y="4.368" width="34.8616601" height="1.456"></rect>
                        <rect id="Rectangle-path" x="0.0553359684" y="8.568" width="34.8616601" height="1.456"></rect>
                        <rect id="Rectangle-path" x="0.0553359684" y="12.768" width="34.8616601" height="1.456"></rect>
                        <rect id="Rectangle-path" x="0.0553359684" y="17.024" width="34.8616601" height="1.456"></rect>
                        <polygon id="Shape" points="19.0909091 22.624 34.916996 22.624 34.916996 21.224 0.0553359684 21.224 0.0553359684 22.68 19.0909091 22.68"></polygon>
                        <rect id="Rectangle-path" x="0.0553359684" y="25.424" width="19.0909091" height="1.456"></rect>
                    </g>
                </g>
            </g>
            <g id="Group" transform="translate(55.000000, 25.000000)" fill-rule="nonzero">
                <rect id="Rectangle-path" fill="#48A0DC" x="0" y="0" width="19" height="19"></rect>
                <rect id="Rectangle-path" fill="#FFFFFF" x="9" y="5" width="2" height="14"></rect>
                <polygon id="Shape" fill="#FFFFFF" points="14.7350529 11 10 6.43763083 5.26494707 11 4 9.78118458 10 4 16 9.78118458"></polygon>
            </g>
            <circle id="Oval-7" fill="#E6E9EE" cx="45.5" cy="34.5" r="4.5"></circle>
        </g>
    </g>
</svg>