<?xml version="1.0" encoding="UTF-8"?>
<svg width="90px" height="90px" viewBox="0 0 90 90" version="1.1" xmlns="http://www.w3.org/2000/svg" xmlns:xlink="http://www.w3.org/1999/xlink">
    <!-- Generator: Sketch 46.2 (44496) - http://www.bohemiancoding.com/sketch -->
    <title>002-curriculum</title>
    <desc>Created with Sketch.</desc>
    <defs>
        <linearGradient x1="50%" y1="0%" x2="115.740269%" y2="108.389992%" id="linearGradient-1">
            <stop stop-color="#88F3E2" offset="0%"></stop>
            <stop stop-color="#419BAA" offset="100%"></stop>
        </linearGradient>
    </defs>
    <g id="Page-1" stroke="none" stroke-width="1" fill="none" fill-rule="evenodd">
        <g id="Mobile-Copy-5" transform="translate(-19.000000, -24.000000)">
            <g id="Group-5" transform="translate(-3.000000, 0.000000)">
                <g id="002-curriculum" transform="translate(22.000000, 24.000000)">
                    <circle id="Oval-6" fill="url(#linearGradient-1)" cx="45" cy="45" r="45"></circle>
                    <g id="Group-7" transform="translate(25.000000, 18.000000)" fill-rule="nonzero">
                        <path d="M38.4811458,54 L2.51693541,54 C1.11863796,54 0,52.8841202 0,51.4892704 L0,4.51072961 C0,3.11587983 1.11863796,2 2.51693541,2 L38.4811458,2 C39.8794433,2 40.9980812,3.11587983 40.9980812,4.51072961 L40.9980812,51.4892704 C41.0540131,52.8841202 39.8794433,54 38.4811458,54 Z" id="Shape" fill="#FFFFFF"></path>
                        <g id="Group" transform="translate(3.000000, 24.000000)" fill="#E6E9EE">
                            <rect id="Rectangle-path" x="0.0553359684" y="0.112" width="34.8616601" height="1.456"></rect>
                            <rect id="Rectangle-path" x="0.0553359684" y="4.368" width="34.8616601" height="1.456"></rect>
                            <rect id="Rectangle-path" x="0.0553359684" y="8.568" width="34.8616601" height="1.456"></rect>
                            <rect id="Rectangle-path" x="0.0553359684" y="12.768" width="34.8616601" height="1.456"></rect>
                            <rect id="Rectangle-path" x="0.0553359684" y="17.024" width="34.8616601" height="1.456"></rect>
                            <polygon id="Shape" points="19.0909091 22.624 34.916996 22.624 34.916996 21.224 0.0553359684 21.224 0.0553359684 22.68 19.0909091 22.68"></polygon>
                            <rect id="Rectangle-path" x="0.0553359684" y="25.424" width="19.0909091" height="1.456"></rect>
                        </g>
                        <path d="M28,18.6438356 L26.6621622,20 L25,18.3150685 C25.2432432,18.109589 25.4864865,17.9041096 25.6891892,17.6986301 C25.8918919,17.4931507 26.1351351,17.2465753 26.2972973,17 L28,18.6438356 Z" id="Shape" fill="#2B3B4E"></path>
                        <circle id="Oval" fill="#324A5E" cx="18.5" cy="11.5" r="11.5"></circle>
                        <circle id="Oval" fill="#FFFFFF" cx="18" cy="10" r="9"></circle>
                        <path d="M25,16.3207547 C23.258427,18.5849057 20.5617978,20 17.5280899,20 C14.494382,20 11.741573,18.5283019 10,16.3207547 C11.3483146,15.0754717 13.0337079,14.3396226 14.494382,14 C14.3820225,15.1320755 14.9438202,16.6037736 14.9438202,16.6037736 C15.505618,15.245283 17.5280899,15.1320755 17.5280899,15.1320755 C17.5280899,15.1320755 19.494382,15.245283 20.1123596,16.6037736 C20.1123596,16.6603774 20.7303371,15.1320755 20.5617978,14 C21.9662921,14.3396226 23.7078652,15.0188679 25,16.3207547 Z" id="Shape" fill="#84DBFF"></path>
                        <path d="M21,12.0862069 C21,12.2931034 20.8255814,13.2241379 18.5581395,14 L18.4418605,14 L18.4418605,14 C16.1744186,13.2241379 16,12.2931034 16,12.0862069 L16,12.0862069 C16,11.7241379 16.1162791,11.362069 16.2906977,11 C16.9302326,11.6206897 17.6860465,12.0344828 18.5,12.0344828 C19.3139535,12.0344828 20.0697674,11.6206897 20.7093023,11 C20.8837209,11.362069 21,11.7241379 21,12.0862069 Z" id="Shape" fill="#FFD05B"></path>
                        <g id="Group" transform="translate(17.000000, 14.000000)" fill="#F1543F">
                            <path d="M1.30666667,0.02 C1.30666667,0.02 1.17333333,0.02 1.30666667,0.02 C1.17333333,0.02 1.04,0.02 1.04,0.02 L1.30666667,0.02 Z" id="Shape"></path>
                            <path d="M2,0.26 L1.64,0.98 L0.44,0.98 L0.08,0.26 C0.56,0.06 1.04,0.02 1.04,0.02 C1.04,0.02 1.56,0.06 2,0.26 Z" id="Shape"></path>
                        </g>
                        <path d="M17,19.90625 C17.3478261,19.953125 17.6521739,20 18,20 C18.3478261,20 18.6521739,19.953125 19,19.90625 L18.6521739,17 L17.3478261,17 L17,19.90625 Z" id="Shape" fill="#FF7058"></path>
                        <g id="Group" transform="translate(15.000000, 12.000000)" fill="#54C0EB">
                            <path d="M6.20454545,0 C6.20454545,0 6.33181818,1.01538462 3.46818182,1.75384615 C3.46818182,1.75384615 5.69545455,1.84615385 6.39545455,2.95384615 C6.39545455,3 7.66818182,0.553846154 6.20454545,0 Z" id="Shape"></path>
                            <path d="M0.731818182,0 C-0.731818182,0.6 0.540909091,3 0.540909091,3 C1.17727273,1.89230769 3.46818182,1.8 3.46818182,1.8 C0.604545455,0.969230769 0.731818182,0 0.731818182,0 Z" id="Shape"></path>
                        </g>
                        <path d="M21,11.2307692 C20.25,11.6923077 19.4375,12 18.5,12 C17.5625,12 16.6875,11.6923077 16,11.2307692 C16.0625,11.1538462 16.0625,11.0769231 16.125,11 C16.8125,11.4615385 17.625,11.7692308 18.5,11.7692308 C19.375,11.7692308 20.1875,11.4615385 20.875,11 C20.9375,11.0769231 21,11.1538462 21,11.2307692 Z" id="Shape" fill="#F9B54C"></path>
                        <path d="M22.7018927,8.77697842 C22.3611987,9.35251799 21.9069401,9.64028777 21.5094637,9.58273381 C20.7712934,10.9640288 19.692429,12 18.5,12 C17.307571,12 16.2287066,10.9640288 15.4905363,9.58273381 C15.0930599,9.64028777 14.6388013,9.29496403 14.2981073,8.77697842 C13.9006309,8.14388489 13.9006309,7.39568345 14.2981073,7.16546763 C14.3548896,7.10791367 14.4684543,7.10791367 14.5820189,7.10791367 C14.8091483,7.74100719 15.1498423,8.14388489 15.1498423,8.14388489 C14.8091483,6.1294964 16.2287066,5.95683453 16.0015773,4 C16.0015773,4 16.9100946,6.07194245 19.522082,4.63309353 L19.2949527,5.03597122 C22.8722397,4.23021583 21.7365931,8.43165468 21.6798107,8.6618705 C22.0772871,8.14388489 22.3611987,7.62589928 22.5315457,7.10791367 C22.5883281,7.10791367 22.6451104,7.10791367 22.7018927,7.16546763 C23.0993691,7.45323741 23.0993691,8.14388489 22.7018927,8.77697842 Z" id="Shape" fill="#FFD05B"></path>
                        <g id="Group" transform="translate(14.000000, 2.000000)" fill="#324A5E">
                            <path d="M0.583333333,1.47704918 C0.583333333,1.47704918 1.30555556,1.36557377 1.52777778,1.92295082 C1.52777778,1.92295082 1.30555556,1.14262295 1.52777778,0.808196721 C1.75,0.473770492 1.52777778,0.696721311 1.52777778,0.696721311 C1.52777778,0.696721311 1.41666667,1.19836066 1.63888889,1.47704918 C1.63888889,1.47704918 2.13888889,-0.362295082 5.19444444,0.139344262 C5.19444444,0.139344262 4.58333333,0.0836065574 3.86111111,0.696721311 C3.86111111,0.696721311 5.97222222,-0.250819672 7.25,1.19836066 C7.25,1.19836066 6.75,0.975409836 6.47222222,0.975409836 C6.47222222,0.975409836 9.19444444,2.03442623 8.80555556,4.76557377 L8.63888889,4.15245902 C8.63888889,4.15245902 8.86111111,5.82459016 7.52777778,7.49672131 C7.52777778,7.49672131 8.80555556,3.14918033 5.19444444,3.9852459 L5.41666667,3.59508197 C2.86111111,4.98852459 1.97222222,2.98196721 1.97222222,2.98196721 C2.19444444,4.82131148 0.805555556,5.0442623 1.13888889,6.99508197 C1.13888889,6.99508197 -0.0833333333,5.60163934 0.416666667,3.76229508 L0.0277777778,4.20819672 C0.0277777778,4.20819672 -0.25,2.53606557 1.36111111,1.97868852 C1.30555556,1.97868852 1.19444444,1.58852459 0.583333333,1.47704918 Z" id="Shape"></path>
                            <path d="M29.6388889,31.5754098 L27.6388889,33.5819672 C27.1944444,34.0278689 26.4722222,34.0278689 26.0833333,33.5819672 L13.75,21.2081967 C13.3055556,20.7622951 13.3055556,20.0377049 13.75,19.647541 L15.75,17.6409836 C16.1944444,17.195082 16.9166667,17.195082 17.3055556,17.6409836 L29.5833333,29.9590164 C30.0277778,30.4606557 30.0277778,31.1295082 29.6388889,31.5754098 Z" id="Shape"></path>
                        </g>
                        <rect id="Rectangle-path" fill="#4CDBC4" transform="translate(36.000000, 27.500000) rotate(-135.000000) translate(-36.000000, -27.500000) " x="28" y="25" width="16" height="5"></rect>
                    </g>
                </g>
            </g>
        </g>
    </g>
</svg>